<svg xmlns="http://www.w3.org/2000/svg" data-name="Layer 1" viewBox="0 0 1000 500"><polygon fill="#fcf34c" points="494.88 180.82 482.09 186.27 476.9 199.17 482.35 211.96 495.25 217.14 508.04 211.69 513.23 198.79 507.77 186 494.88 180.82" class="colorfcf34c svgShape"/><path fill="#231d24" d="M508.46,185.71a.7.7,0,0,0-.41-.4l-12.89-5.19a.78.78,0,0,0-.58,0l-12.79,5.45a.8.8,0,0,0-.4.41l-5.19,12.9a.75.75,0,0,0,0,.57l5.45,12.79a.76.76,0,0,0,.41.4l12.9,5.19a.69.69,0,0,0,.28,0,.8.8,0,0,0,.3-.06l12.78-5.45a.78.78,0,0,0,.41-.41l5.18-12.9a.75.75,0,0,0,0-.57Zm-1,25.41-12.22,5.21-12.32-5-5.21-12.22,5-12.32,12.21-5.21,12.33,5,5.21,12.22Z" class="color231d24 svgShape"/><circle cx="540.05" cy="316.48" r="88.37" fill="#fb8500" transform="rotate(-10.72 540.214 316.585)" class="colorfb8500 svgShape"/><path fill="#ffffff" d="M764.36,35.47H737.23A153,153,0,0,0,629,80.3l-94,94L530.59,219h23a57.7,57.7,0,0,1,57.7,57.7,153.07,153.07,0,1,0,306.14,0V188.54A153.07,153.07,0,0,0,764.36,35.47Z" class="colorfff svgShape"/><path fill="#231d24" d="M533.6,197.88h52.2a7.83,7.83,0,0,0,7.82-7.83v-73L535,174.34Z" class="color231d24 svgShape"/><path fill="#231d24" d="M593.91,116.39a.76.76,0,0,0-.81.16l-58.67,57.26a.74.74,0,0,0-.22.49l-1.36,23.53a.75.75,0,0,0,.75.79h52.2a8.58,8.58,0,0,0,8.57-8.57v-73A.75.75,0,0,0,593.91,116.39Zm-1,73.66a7.08,7.08,0,0,1-7.07,7.07H534.39l1.3-22.44,57.18-55.82Z" class="color231d24 svgShape"/><path fill="#ffffff" d="M725.57,187.66H657.71a21.52,21.52,0,0,0,0,43h67.86a21.52,21.52,0,0,0,0-43Z" class="colorfff svgShape"/><path fill="#231d24" d="M725.57,186.91H657.71a22.27,22.27,0,0,0,0,44.53h67.86a22.27,22.27,0,0,0,0-44.53Zm0,43H657.71a20.77,20.77,0,0,1,0-41.53h67.86a20.77,20.77,0,0,1,0,41.53Z" class="color231d24 svgShape"/><path fill="#231d24" d="M764.36,33.47H737.23A154.05,154.05,0,0,0,627.58,78.89l-94,94,2.83,2.83,94-94A150.08,150.08,0,0,1,737.23,37.47h27.13c83.3,0,151.07,67.77,151.07,151.07v88.14c0,83.3-67.77,151.07-151.07,151.07S613.29,360,613.29,276.68a59.77,59.77,0,0,0-59.7-59.7h-23v4h23a55.76,55.76,0,0,1,55.7,55.7c0,85.51,69.57,155.07,155.07,155.07s155.07-69.56,155.07-155.07V188.54C919.43,103,849.87,33.47,764.36,33.47Z" class="color231d24 svgShape"/><path fill="#4d5eff" d="M854.53,127H815a25.89,25.89,0,1,0,0,51.78h39.56a25.89,25.89,0,0,0,0-51.78Z" class="color4d5eff svgShape"/><path fill="#231d24" d="M854.53,126.21H815a26.64,26.64,0,1,0,0,53.28h39.56a26.64,26.64,0,0,0,0-53.28Zm0,51.78H815a25.14,25.14,0,1,1,0-50.28h39.56a25.14,25.14,0,0,1,0,50.28Z" class="color231d24 svgShape"/><path fill="#ffffff" d="M816.53 146.63a8.19 8.19 0 014.06-1 7.5 7.5 0 015.57 2.23l1.27-1.26a8.06 8.06 0 00-3-2.05 11 11 0 00-8.93.54 9 9 0 00-3.54 3.43 10.06 10.06 0 000 9.82 9.05 9.05 0 003.53 3.44 11 11 0 008.93.52 8.12 8.12 0 003-2.06L826.16 159a7.42 7.42 0 01-5.57 2.26 8.19 8.19 0 01-4.06-1 7.57 7.57 0 01-2.87-2.8 8.22 8.22 0 010-8A7.43 7.43 0 01816.53 146.63zM835.48 146.63a8.19 8.19 0 014.06-1 7.5 7.5 0 015.57 2.23l1.27-1.26a8.06 8.06 0 00-3-2.05 11 11 0 00-8.93.54 9 9 0 00-3.54 3.43 10.06 10.06 0 000 9.82 9.09 9.09 0 003.52 3.44 11 11 0 008.94.52 8.12 8.12 0 003-2.06L845.11 159a7.42 7.42 0 01-5.57 2.26 8.19 8.19 0 01-4.06-1 7.57 7.57 0 01-2.87-2.8 8.15 8.15 0 010-8A7.43 7.43 0 01835.48 146.63z" class="colorfff svgShape"/><polygon fill="#ffffff" points="856.09 147.71 854.4 147.71 854.4 152.63 849.39 152.63 849.39 154.22 854.4 154.22 854.4 159.12 856.09 159.12 856.09 154.22 861.1 154.22 861.1 152.63 856.09 152.63 856.09 147.71" class="colorfff svgShape"/><path fill="#231d24" d="M666.39 205.77a6.13 6.13 0 00-2.74.58 4.46 4.46 0 00-1.87 1.67v-7.21h-1.66v17.36h1.66v-6.46a4.42 4.42 0 011.16-3.26 4.18 4.18 0 013.14-1.18 3.6 3.6 0 012.74 1 4.09 4.09 0 011 2.93v7h1.66V211a5.28 5.28 0 00-1.37-3.92A5 5 0 00666.39 205.77zM681 216.69a3 3 0 01-1 .17 2.08 2.08 0 01-1.58-.58 2.35 2.35 0 01-.55-1.67v-7.34h3.75v-1.41h-3.75v-2.69h-1.66v2.69H674v1.41h2.2v7.43a3.26 3.26 0 003.61 3.58 4.59 4.59 0 001.43-.22 3.17 3.17 0 001.16-.64l-.58-1.19A2.58 2.58 0 01681 216.69zM700.79 205.77a6 6 0 00-2.91.69 4.79 4.79 0 00-2 1.91 4.07 4.07 0 00-1.7-2 5.34 5.34 0 00-2.68-.65 5.7 5.7 0 00-2.69.61 4.4 4.4 0 00-1.82 1.73v-2.25h-1.59v12.31h1.66v-6.46a4.57 4.57 0 011.11-3.26 3.92 3.92 0 013-1.18 3.41 3.41 0 012.63 1 4.22 4.22 0 01.92 2.93v7h1.66v-6.46a4.61 4.61 0 011.1-3.26 3.91 3.91 0 013-1.18 3.38 3.38 0 012.61 1 4.22 4.22 0 01.92 2.93v7h1.66V211a5.37 5.37 0 00-1.32-3.93A4.88 4.88 0 00700.79 205.77z" class="color231d24 svgShape"/><rect width="1.66" height="17.36" x="710.26" y="200.81" fill="#231d24" class="color231d24 svgShape"/><polygon fill="#231d24" points="713.66 220.5 715.18 220.5 722.89 198.47 721.37 198.47 713.66 220.5" class="color231d24 svgShape"/><polygon fill="#231d24" points="719.97 220.5 721.49 220.5 729.21 198.47 727.69 198.47 719.97 220.5" class="color231d24 svgShape"/><polygon fill="#231d24" points="707.58 256.45 714.52 256.45 714.52 304.27 707.58 304.27 707.58 309.12 720.42 309.12 720.42 251.59 707.58 251.59 707.58 256.45" class="color231d24 svgShape"/><polygon fill="#231d24" points="673.25 309.12 686.1 309.12 686.1 304.27 679.15 304.27 679.15 256.45 686.1 256.45 686.1 251.59 673.25 251.59 673.25 309.12" class="color231d24 svgShape"/><polygon fill="#231d24" points="689.99 394.57 688.49 394.57 688.49 400.92 694.67 400.92 694.67 399.42 689.99 399.42 689.99 394.57" class="color231d24 svgShape"/><polygon fill="#231d24" points="680.85 403.71 685.53 403.71 685.53 408.56 687.03 408.56 687.03 402.21 680.85 402.21 680.85 403.71" class="color231d24 svgShape"/><polygon fill="#231d24" points="688.41 408.48 689.91 408.48 689.91 403.8 694.76 403.8 694.76 402.3 688.41 402.3 688.41 408.48" class="color231d24 svgShape"/><polygon fill="#231d24" points="685.62 399.33 680.77 399.33 680.77 400.83 687.12 400.83 687.12 394.65 685.62 394.65 685.62 399.33" class="color231d24 svgShape"/><polygon fill="#231d24" points="736.15 394.57 734.65 394.57 734.65 400.92 740.83 400.92 740.83 399.42 736.15 399.42 736.15 394.57" class="color231d24 svgShape"/><polygon fill="#231d24" points="727.01 403.71 731.69 403.71 731.69 408.56 733.19 408.56 733.19 402.21 727.01 402.21 727.01 403.71" class="color231d24 svgShape"/><polygon fill="#231d24" points="734.57 408.48 736.07 408.48 736.07 403.8 740.92 403.8 740.92 402.3 734.57 402.3 734.57 408.48" class="color231d24 svgShape"/><polygon fill="#231d24" points="731.78 399.33 726.93 399.33 726.93 400.83 733.28 400.83 733.28 394.65 731.78 394.65 731.78 399.33" class="color231d24 svgShape"/><polygon fill="#231d24" points="736.15 350.12 734.65 350.12 734.65 356.47 740.83 356.47 740.83 354.97 736.15 354.97 736.15 350.12" class="color231d24 svgShape"/><polygon fill="#231d24" points="727.01 359.27 731.69 359.27 731.69 364.12 733.19 364.12 733.19 357.77 727.01 357.77 727.01 359.27" class="color231d24 svgShape"/><polygon fill="#231d24" points="734.57 364.03 736.07 364.03 736.07 359.35 740.92 359.35 740.92 357.85 734.57 357.85 734.57 364.03" class="color231d24 svgShape"/><polygon fill="#231d24" points="731.78 354.89 726.93 354.89 726.93 356.39 733.28 356.39 733.28 350.21 731.78 350.21 731.78 354.89" class="color231d24 svgShape"/><path fill="#ffffff" d="M782.09,61.64H723a25.89,25.89,0,1,0,0,51.78h59.1a25.89,25.89,0,0,0,0-51.78Z" class="colorfff svgShape"/><path fill="#231d24" d="M782.09,60.89H723a26.64,26.64,0,1,0,0,53.28h59.1a26.64,26.64,0,0,0,0-53.28Zm0,51.78H723a25.14,25.14,0,1,1,0-50.28h59.1a25.14,25.14,0,0,1,0,50.28Z" class="color231d24 svgShape"/><path fill="#231d24" d="M740.51 76.88l-1.07-1.06-11 11.1a.75.75 0 000 1l11 11.76 1.1-1L730 87.46zM767.7 75.84l-1.1 1L777.09 88.1 766.61 98.69l1.07 1 11-11.1a.75.75 0 000-1z" class="color231d24 svgShape"/><rect width="34.03" height="1.5" x="735.84" y="86.78" fill="#231d24" transform="rotate(-70.02 752.836 87.536)" class="color231d24 svgShape"/><path fill="#231d24" d="M649.45 131.77v6.72q0 3.38-3.07 3.37h-.3v3.34h.3q3.07 0 3.07 3.37v6.71q0 6 6.72 6.74v-3.37c-2.25-.16-3.38-1.29-3.38-3.37v-6.71a6.71 6.71 0 00-2.25-5 6.71 6.71 0 002.25-5v-6.72c0-2.05 1.13-3.18 3.38-3.37V125Q649.45 125.83 649.45 131.77zM680.69 158.86a1.65 1.65 0 101.65 1.65A1.65 1.65 0 00680.69 158.86zM689.91 158.86a1.65 1.65 0 101.65 1.65A1.64 1.64 0 00689.91 158.86z" class="color231d24 svgShape"/><circle cx="699.13" cy="160.51" r="1.65" fill="#231d24" class="color231d24 svgShape"/><path fill="#ffffff" d="M575 155v-6.72q0-6-6.72-6.74V145c2.25.17 3.37 1.3 3.37 3.37V155a6.73 6.73 0 002.26 5 6.69 6.69 0 00-2.26 5v6.71q0 3.09-3.37 3.37v3.37q6.72-.78 6.72-6.74v-6.71q0-3.37 3.07-3.37h.3v-3.34H578C576 158.41 575 157.28 575 155zM551.61 171.83v-6.71a6.69 6.69 0 00-2.26-5 6.73 6.73 0 002.26-5.05l-6.72 6.72h.3q3.07 0 3.07 3.37v6.71q0 6 6.72 6.74V175.2Q551.61 174.95 551.61 171.83z" class="colorfff svgShape"/><rect width="41.2" height="4" x="837.93" y="200.84" fill="#231d24" class="color231d24 svgShape"/><rect width="60.85" height="4" x="828.11" y="211.43" fill="#231d24" class="color231d24 svgShape"/><rect width="41.79" height="4" x="838.47" y="222.79" fill="#231d24" class="color231d24 svgShape"/><rect width="15.76" height="4" x="810.28" y="200.84" fill="#4d5eff" class="color4d5eff svgShape"/><rect width="28.48" height="4" x="801.23" y="222.81" fill="#fb8500" class="colorfb8500 svgShape"/><rect width="17.31" height="4" x="796.06" y="211.18" fill="#231d24" class="color231d24 svgShape"/><rect width="49.04" height="4" x="828.23" y="233.41" fill="#231d24" class="color231d24 svgShape"/><rect width="72.42" height="4" x="816.54" y="244.01" fill="#231d24" class="color231d24 svgShape"/><rect width="49.74" height="4" x="828.86" y="255.36" fill="#231d24" class="color231d24 svgShape"/><rect width="18.76" height="4" x="795.31" y="233.41" fill="#4d5eff" class="color4d5eff svgShape"/><rect width="33.9" height="4" x="784.55" y="255.38" fill="#fb8500" class="colorfb8500 svgShape"/><rect width="20.61" height="4" x="778.39" y="243.75" fill="#231d24" class="color231d24 svgShape"/><rect width="35.99" height="4" x="796.79" y="267.96" fill="#231d24" class="color231d24 svgShape"/><rect width="53.15" height="4" x="819.29" y="279.33" fill="#231d24" class="color231d24 svgShape"/><rect width="36.5" height="4" x="795.81" y="289.91" fill="#231d24" class="color231d24 svgShape"/><rect width="13.77" height="4" x="843.17" y="267.96" fill="#4d5eff" class="color4d5eff svgShape"/><rect width="24.88" height="4" x="839.96" y="289.93" fill="#fb8500" class="colorfb8500 svgShape"/><rect width="15.12" height="4" x="791.3" y="279.59" fill="#231d24" class="color231d24 svgShape"/><path fill="#231d24" d="M902,317.52H779a8.17,8.17,0,0,0-8.17,8.17V429.63A153.15,153.15,0,0,0,910,324,8.16,8.16,0,0,0,902,317.52Z" class="color231d24 svgShape"/><path fill="#231d24" d="M902,316.77H779a8.93,8.93,0,0,0-8.92,8.92V429.63a.76.76,0,0,0,.23.54.78.78,0,0,0,.52.21h0A154.33,154.33,0,0,0,910.7,324.2a.74.74,0,0,0,0-.39A9,9,0,0,0,902,316.77ZM771.53,428.84V325.69a7.42,7.42,0,0,1,7.42-7.42H902a7.46,7.46,0,0,1,7.21,5.66A152.85,152.85,0,0,1,771.53,428.84Z" class="color231d24 svgShape"/><path fill="#ffffff" d="M770.78,325.69v4.49H906.9l3.28-12.67H779A8.18,8.18,0,0,0,770.78,325.69Z" class="colorfff svgShape"/><path fill="#231d24" d="M910.18,316.76H779a8.94,8.94,0,0,0-8.93,8.93v4.49a.75.75,0,0,0,.75.75H906.9a.74.74,0,0,0,.72-.56l3.29-12.67a.74.74,0,0,0-.14-.65A.75.75,0,0,0,910.18,316.76Zm-3.86,12.67H771.53v-3.74a7.43,7.43,0,0,1,7.43-7.43H909.21Z" class="color231d24 svgShape"/><path fill="#ffffff" d="M791.43,344.82a24.4,24.4,0,1,0,24.39,24.4A24.43,24.43,0,0,0,791.43,344.82Zm0,47.29a22.9,22.9,0,1,1,22.89-22.89A22.92,22.92,0,0,1,791.43,392.11Z" class="colorfff svgShape"/><rect width="26.48" height="6" x="788.59" y="363.82" fill="#ffffff" class="colorfff svgShape"/><rect width="14.75" height="6" x="797.16" y="375.48" fill="#ffffff" class="colorfff svgShape"/><rect width="14.75" height="6" x="784.49" y="386.13" fill="#ffffff" class="colorfff svgShape"/><rect width="21.83" height="6" x="770.87" y="375.48" fill="#ffffff" class="colorfff svgShape"/><rect width="25.42" height="6" x="775.33" y="351.43" fill="#ffffff" class="colorfff svgShape"/><rect width="21.62" height="4" x="755.65" y="392.83" fill="#231d24" transform="rotate(-45 766.485 394.832)" class="color231d24 svgShape"/><rect width="62.94" height="1.5" x="807.19" y="350.77" fill="#ffffff" class="colorfff svgShape"/><rect width="34.23" height="1.5" x="787.19" y="416.81" fill="#ffffff" class="colorfff svgShape"/><rect width="35.27" height="1.5" x="821.02" y="382.36" fill="#ffffff" class="colorfff svgShape"/><rect width="17.35" height="1.5" x="838.95" y="393.84" fill="#ffffff" class="colorfff svgShape"/><rect width="30.96" height="1.5" x="809.14" y="405.06" fill="#ffffff" class="colorfff svgShape"/><rect width="38.03" height="1.5" x="814.4" y="360.83" fill="#ffffff" class="colorfff svgShape"/><rect width="54.14" height="1.5" x="814.4" y="371.36" fill="#ffffff" class="colorfff svgShape"/><rect width="12.67" height="1.5" x="877.56" y="350.77" fill="#ffffff" class="colorfff svgShape"/><rect width="29.94" height="1.5" x="860.29" y="360.83" fill="#ffffff" class="colorfff svgShape"/><path fill="#231d24" d="M670,349.62a7,7,0,1,0,7,7A7,7,0,0,0,670,349.62Zm0,12.55a5.53,5.53,0,1,1,5.53-5.52A5.53,5.53,0,0,1,670,362.17Z" class="color231d24 svgShape"/><rect width="1.5" height="17.43" x="691.94" y="347.82" fill="#231d24" transform="rotate(-45 692.73 356.532)" class="color231d24 svgShape"/><rect width="17.43" height="1.5" x="683.98" y="355.78" fill="#231d24" transform="rotate(-45 692.636 356.52)" class="color231d24 svgShape"/><path fill="#231d24" d="M325.61 166.05a2.45 2.45 0 102.45 2.45A2.45 2.45 0 00325.61 166.05zM357.32 166.05a2.45 2.45 0 102.45 2.45A2.45 2.45 0 00357.32 166.05zM389 166.05a2.45 2.45 0 102.45 2.45A2.45 2.45 0 00389 166.05zM420.75 166.05a2.45 2.45 0 102.45 2.45A2.45 2.45 0 00420.75 166.05zM452.46 166.05a2.45 2.45 0 102.45 2.45A2.45 2.45 0 00452.46 166.05zM342.05 183.3a2.45 2.45 0 102.45 2.45A2.45 2.45 0 00342.05 183.3zM373.66 183.3a2.45 2.45 0 102.45 2.45A2.45 2.45 0 00373.66 183.3zM405.27 183.3a2.45 2.45 0 102.45 2.45A2.44 2.44 0 00405.27 183.3zM436.88 183.3a2.45 2.45 0 102.45 2.45A2.44 2.44 0 00436.88 183.3zM325.61 206.8a2.45 2.45 0 102.45 2.45A2.45 2.45 0 00325.61 206.8zM357.32 206.8a2.45 2.45 0 102.45 2.45A2.45 2.45 0 00357.32 206.8zM389 206.8a2.45 2.45 0 102.45 2.45A2.45 2.45 0 00389 206.8zM420.75 206.8a2.45 2.45 0 102.45 2.45A2.45 2.45 0 00420.75 206.8zM452.46 206.8a2.45 2.45 0 102.45 2.45A2.45 2.45 0 00452.46 206.8zM342.05 224.05a2.45 2.45 0 102.45 2.45A2.45 2.45 0 00342.05 224.05zM373.66 224.05a2.45 2.45 0 102.45 2.45A2.45 2.45 0 00373.66 224.05zM405.27 224.05a2.45 2.45 0 102.45 2.45A2.45 2.45 0 00405.27 224.05zM436.88 224.05a2.45 2.45 0 102.45 2.45A2.45 2.45 0 00436.88 224.05zM325.61 247.56a2.45 2.45 0 102.45 2.45A2.45 2.45 0 00325.61 247.56zM357.32 247.56a2.45 2.45 0 102.45 2.45A2.45 2.45 0 00357.32 247.56zM389 247.56a2.45 2.45 0 102.45 2.45A2.45 2.45 0 00389 247.56zM420.75 247.56A2.45 2.45 0 10423.2 250 2.44 2.44 0 00420.75 247.56zM452.46 247.56a2.45 2.45 0 102.45 2.45A2.44 2.44 0 00452.46 247.56zM342.05 264.8a2.45 2.45 0 102.45 2.45A2.45 2.45 0 00342.05 264.8zM373.66 264.8a2.45 2.45 0 102.45 2.45A2.45 2.45 0 00373.66 264.8zM405.27 264.8a2.45 2.45 0 102.45 2.45A2.45 2.45 0 00405.27 264.8zM436.88 264.8a2.45 2.45 0 102.45 2.45A2.45 2.45 0 00436.88 264.8zM325.61 288.31a2.45 2.45 0 102.45 2.45A2.45 2.45 0 00325.61 288.31zM357.32 288.31a2.45 2.45 0 102.45 2.45A2.45 2.45 0 00357.32 288.31zM389 288.31a2.45 2.45 0 102.45 2.45A2.45 2.45 0 00389 288.31z" class="color231d24 svgShape"/><circle cx="420.75" cy="290.76" r="2.45" fill="#231d24" class="color231d24 svgShape"/><path fill="#231d24" d="M452.46 288.31a2.45 2.45 0 102.45 2.45A2.45 2.45 0 00452.46 288.31zM342.05 305.55A2.46 2.46 0 10344.5 308 2.45 2.45 0 00342.05 305.55zM373.66 305.55a2.46 2.46 0 102.45 2.45A2.45 2.45 0 00373.66 305.55zM405.27 305.55a2.46 2.46 0 102.45 2.45A2.45 2.45 0 00405.27 305.55zM436.88 305.55a2.46 2.46 0 102.45 2.45A2.45 2.45 0 00436.88 305.55zM325.61 329.06a2.45 2.45 0 102.45 2.45A2.45 2.45 0 00325.61 329.06zM357.32 329.06a2.45 2.45 0 102.45 2.45A2.45 2.45 0 00357.32 329.06zM389 329.06a2.45 2.45 0 102.45 2.45A2.45 2.45 0 00389 329.06z" class="color231d24 svgShape"/><circle cx="420.75" cy="331.51" r="2.45" fill="#231d24" class="color231d24 svgShape"/><path fill="#231d24" d="M452.46 329.06a2.45 2.45 0 102.45 2.45A2.45 2.45 0 00452.46 329.06zM342.05 346.31a2.45 2.45 0 102.45 2.45A2.45 2.45 0 00342.05 346.31zM373.66 346.31a2.45 2.45 0 102.45 2.45A2.45 2.45 0 00373.66 346.31zM405.27 346.31a2.45 2.45 0 102.45 2.45A2.44 2.44 0 00405.27 346.31zM436.88 346.31a2.45 2.45 0 102.45 2.45A2.44 2.44 0 00436.88 346.31z" class="color231d24 svgShape"/><path fill="#fcf34c" d="M343.41,319.1A163.65,163.65,0,0,0,105.63,465l327.23,1.57A163.59,163.59,0,0,0,343.41,319.1Z" class="colorfcf34c svgShape"/><path fill="#231d24" d="M343.75,318.43A164.4,164.4,0,0,0,104.88,465h1.5a162.87,162.87,0,1,1,325.73,1.56h1.5a164.35,164.35,0,0,0-89.86-148.1Z" class="color231d24 svgShape"/><path fill="#ffffff" d="M150.44,383l-9.52-1.1a1.56,1.56,0,0,1-1.2-2.27l4.47-8.49a1.56,1.56,0,0,0-2.14-2.08l-8.35,4.71a1.55,1.55,0,0,1-2.3-1.13L130,363.1a1.55,1.55,0,0,0-3-.43l-4,8.72a1.56,1.56,0,0,1-2.53.44L113.86,365a1.56,1.56,0,0,0-2.64,1.39l1.9,9.4a1.56,1.56,0,0,1-1.79,1.84L101.88,376a1.56,1.56,0,0,0-1.32,2.68l7.06,6.49a1.56,1.56,0,0,1-.37,2.54l-8.59,4.23a1.56,1.56,0,0,0,.5,3l9.53,1.1a1.55,1.55,0,0,1,1.19,2.27l-4.46,8.48a1.56,1.56,0,0,0,2.14,2.08l8.35-4.7a1.55,1.55,0,0,1,2.3,1.13l1.37,9.49a1.56,1.56,0,0,0,3,.42l4-8.71a1.55,1.55,0,0,1,2.53-.44l6.68,6.87a1.56,1.56,0,0,0,2.65-1.4l-1.9-9.39a1.55,1.55,0,0,1,1.79-1.84l9.45,1.62a1.55,1.55,0,0,0,1.31-2.68l-7-6.48a1.55,1.55,0,0,1,.36-2.54l8.6-4.24A1.55,1.55,0,0,0,150.44,383Z" class="colorfff svgShape"/><path fill="#231d24" d="M150.53,382.2,141,381.1a.8.8,0,0,1-.62-1.17l4.46-8.49a2.26,2.26,0,0,0,0-2.25,2.34,2.34,0,0,0-3.12-.83l-8.35,4.71a.8.8,0,0,1-1.19-.59L130.77,363a2.3,2.3,0,0,0-2.3-2,2.27,2.27,0,0,0-2.08,1.34l-4,8.72a.82.82,0,0,1-.74.47.77.77,0,0,1-.57-.25l-6.69-6.87a2.39,2.39,0,0,0-3.45.16,2.25,2.25,0,0,0-.46,1.91l1.89,9.4a.77.77,0,0,1-.16.66.81.81,0,0,1-.77.29L102,375.22a2.31,2.31,0,0,0-2,4l7,6.49a.79.79,0,0,1,.25.71.82.82,0,0,1-.44.61l-8.6,4.23a2.31,2.31,0,0,0,.76,4.36l9.52,1.1a.82.82,0,0,1,.62.43.77.77,0,0,1,0,.75l-4.47,8.48a2.26,2.26,0,0,0,.06,2.25,2.34,2.34,0,0,0,3.12.83l8.35-4.7a.8.8,0,0,1,1.19.59l1.37,9.48a2.31,2.31,0,0,0,4.38.63l4-8.71a.8.8,0,0,1,.74-.47.78.78,0,0,1,.57.24l6.69,6.87a2.37,2.37,0,0,0,3.45-.16,2.23,2.23,0,0,0,.46-1.9l-1.89-9.4a.78.78,0,0,1,.16-.67.77.77,0,0,1,.76-.28l9.45,1.62a2.31,2.31,0,0,0,2-4l-7.05-6.49a.81.81,0,0,1-.26-.7.79.79,0,0,1,.45-.61l8.59-4.24a2.3,2.3,0,0,0-.75-4.36Zm.09,3-8.6,4.23a2.31,2.31,0,0,0-.54,3.77l7.06,6.49a.77.77,0,0,1,.2.88.78.78,0,0,1-.89.5l-9.44-1.62a2.27,2.27,0,0,0-2.18.81,2.29,2.29,0,0,0-.47,1.92l1.89,9.39a.79.79,0,0,1-.15.66.82.82,0,0,1-1.22.06l-6.68-6.86a2.26,2.26,0,0,0-1.65-.7,2.32,2.32,0,0,0-2.1,1.34l-4,8.72a.81.81,0,0,1-1.53-.22L119,405.1a2.31,2.31,0,0,0-2.28-2,2.39,2.39,0,0,0-1.13.3l-8.35,4.71a.82.82,0,0,1-1.1-.3.76.76,0,0,1,0-.78l4.47-8.48a2.31,2.31,0,0,0-1.78-3.37l-9.52-1.1a.8.8,0,0,1-.26-1.52l8.59-4.24a2.3,2.3,0,0,0,.55-3.76l-7.06-6.49a.78.78,0,0,1-.21-.88.8.8,0,0,1,.89-.51l9.45,1.63a2.3,2.3,0,0,0,2.18-.82,2.27,2.27,0,0,0,.47-1.91L112,366.2a.77.77,0,0,1,.15-.66.83.83,0,0,1,1.22-.06l6.68,6.87a2.3,2.3,0,0,0,3.75-.65l4-8.71a.77.77,0,0,1,.72-.47.78.78,0,0,1,.81.69l1.37,9.48a2.33,2.33,0,0,0,2.29,2,2.28,2.28,0,0,0,1.13-.3l8.35-4.7a.79.79,0,0,1,1.09.3.74.74,0,0,1,0,.77l-4.47,8.49a2.3,2.3,0,0,0,1.78,3.36l9.52,1.1a.8.8,0,0,1,.7.67A.79.79,0,0,1,150.62,385.22Z" class="color231d24 svgShape"/><path fill="#ffffff" d="M476,293.44s11.56,66.66,69.71,63.44C545.74,356.88,541.26,298.3,476,293.44Z" class="colorfff svgShape"/><path fill="#231d24" d="M476.08,292.7a.79.79,0,0,0-.61.24.77.77,0,0,0-.18.63,104.58,104.58,0,0,0,12.44,32c8.85,14.67,25.39,32.14,54,32.14h0c1.33,0,2.7,0,4.07-.11a.71.71,0,0,0,.52-.26.74.74,0,0,0,.19-.55A76.52,76.52,0,0,0,536,326.59C527.43,312.53,510.1,295.23,476.08,292.7Zm65.63,63.54h0c-22.37,0-40.09-10.55-52.66-31.37A104,104,0,0,1,477,294.27c32.69,2.74,49.42,19.44,57.71,33.05a75.77,75.77,0,0,1,10.24,28.85C543.83,356.22,542.76,356.24,541.71,356.24Z" class="color231d24 svgShape"/><rect width="1.5" height="66.22" x="520.44" y="301.55" fill="#231d24" transform="rotate(-47.85 521.159 334.659)" class="color231d24 svgShape"/><path fill="#ffffff" d="M553,356.88c58.15,3.22,69.71-63.44,69.71-63.44C557.43,298.3,553,356.88,553,356.88Z" class="colorfff svgShape"/><path fill="#231d24" d="M622.6,292.7c-34,2.53-51.35,19.83-59.9,33.89a76.33,76.33,0,0,0-10.5,30.23.74.74,0,0,0,.18.55.72.72,0,0,0,.53.26c1.36.07,2.74.11,4.07.11,28.58,0,45.13-17.47,54-32.13a105,105,0,0,0,12.44-32,.75.75,0,0,0-.8-.87Zm-12.93,32.13C601,339.16,584.86,356.24,557,356.24c-1.05,0-2.13,0-3.2-.07a75.85,75.85,0,0,1,10.2-28.8c8.29-13.63,25-30.36,57.75-33.1A104,104,0,0,1,609.67,324.83Z" class="color231d24 svgShape"/><rect width="66.22" height="1.5" x="544.38" y="333.91" fill="#231d24" transform="rotate(-42.14 577.573 334.675)" class="color231d24 svgShape"/><path fill="#ffffff" d="M517.43,248.94S509.25,297,549.52,308.8C549.52,308.8,560.57,267.93,517.43,248.94Z" class="colorfff svgShape"/><path fill="#231d24" d="M517.73,248.26a.71.71,0,0,0-.65,0,.75.75,0,0,0-.39.54c-.08.48-7.83,48.85,32.62,60.7a.76.76,0,0,0,.21,0,.81.81,0,0,0,.37-.09.77.77,0,0,0,.35-.46C550.36,308.59,561,267.29,517.73,248.26ZM549,307.86C513.76,297,517.19,256.8,518,250c21.26,9.7,28.53,24.92,30.87,36.06A54.7,54.7,0,0,1,549,307.86Z" class="color231d24 svgShape"/><rect width="1.5" height="47.72" x="537.44" y="263.95" fill="#231d24" transform="rotate(-28.34 538.219 287.817)" class="color231d24 svgShape"/><path fill="#ffffff" d="M549.76,307.76c41.72-4.53,42.12-53.28,42.12-53.28C546.07,265.58,549.76,307.76,549.76,307.76Z" class="colorfff svgShape"/><path fill="#231d24" d="M591.71,253.75C545.8,264.88,549,307.4,549,307.83a.75.75,0,0,0,.28.51.73.73,0,0,0,.47.17h.08c41.9-4.55,42.79-53.53,42.79-54a.75.75,0,0,0-.28-.6A.77.77,0,0,0,591.71,253.75Zm-41.24,53.18a54.65,54.65,0,0,1,3.89-21.42c4.27-10.56,14.1-24.26,36.74-30.06C590.74,262.26,587.07,302.39,550.47,306.93Z" class="color231d24 svgShape"/><rect width="47.72" height="1.5" x="540.75" y="288.33" fill="#231d24" transform="rotate(-51.5 564.641 289.09)" class="color231d24 svgShape"/><rect width="90.93" height="9.69" x="507.26" y="357.35" fill="#ffffff" class="colorfff svgShape"/><path fill="#231d24" d="M598.19,356.6H507.26a.75.75,0,0,0-.75.75V367a.75.75,0,0,0,.75.75h90.93a.75.75,0,0,0,.75-.75v-9.68A.75.75,0,0,0,598.19,356.6Zm-.75,9.68H508V358.1h89.43Z" class="color231d24 svgShape"/><polygon fill="#ffffff" points="525.57 464.91 579.87 464.91 592.78 367 512.66 367 525.57 464.91" class="colorfff svgShape"/><path fill="#231d24" d="M592.78,366.24H512.66a.76.76,0,0,0-.56.26.75.75,0,0,0-.18.59L524.83,465a.75.75,0,0,0,.74.65h54.3a.76.76,0,0,0,.75-.65l12.9-97.92a.71.71,0,0,0-.18-.59A.74.74,0,0,0,592.78,366.24Zm-13.56,97.92h-53l-12.71-96.42h78.41Z" class="color231d24 svgShape"/><polygon fill="#231d24" points="514.96 374.07 580.5 374.07 575.96 464.91 579.87 464.91 592.78 367 512.66 367 514.96 374.07" class="color231d24 svgShape"/><path fill="#231d24" d="M592.78,366.24H512.66a.75.75,0,0,0-.6.31.79.79,0,0,0-.11.68l2.3,7.07a.75.75,0,0,0,.71.52h64.75l-4.49,90.05a.72.72,0,0,0,.2.56.74.74,0,0,0,.54.23h3.91a.76.76,0,0,0,.75-.65l12.9-97.92a.71.71,0,0,0-.18-.59A.74.74,0,0,0,592.78,366.24Zm-13.56,97.92h-2.47l4.5-90.05a.74.74,0,0,0-.75-.79h-65l-1.81-5.58h78.23Z" class="color231d24 svgShape"/><rect width="1.5" height="49.97" x="548.59" y="307.01" fill="#231d24" class="color231d24 svgShape"/><path fill="#ffffff" d="M348.82,45.56h-.19a14.3,14.3,0,0,1-14.21,14.21V60a14.32,14.32,0,0,1,14.21,14.21h.19A14.31,14.31,0,0,1,363,60v-.19A14.3,14.3,0,0,1,348.82,45.56Z" class="colorfff svgShape"/><path fill="#231d24" d="M363,59a13.6,13.6,0,0,1-13.46-13.46.76.76,0,0,0-.75-.75h-.19a.75.75,0,0,0-.75.75A13.61,13.61,0,0,1,334.42,59a.76.76,0,0,0-.75.75V60a.75.75,0,0,0,.75.75,13.62,13.62,0,0,1,13.46,13.46.74.74,0,0,0,.75.75h.19a.76.76,0,0,0,.75-.75A13.62,13.62,0,0,1,363,60.71a.74.74,0,0,0,.74-.75v-.19A.75.75,0,0,0,363,59ZM348.72,69.89a15.19,15.19,0,0,0-10-10,15.17,15.17,0,0,0,10-10,15.21,15.21,0,0,0,10,10A15.21,15.21,0,0,0,348.72,69.89Z" class="color231d24 svgShape"/><path fill="#ffffff" d="M359.05,73.47H359a7.76,7.76,0,0,1-7.71,7.7v.11A7.76,7.76,0,0,1,359,89h.1a7.76,7.76,0,0,1,7.71-7.7v-.11A7.76,7.76,0,0,1,359.05,73.47Z" class="colorfff svgShape"/><path fill="#231d24" d="M366.76,80.42a7,7,0,0,1-7-7,.75.75,0,0,0-.75-.74H359a.75.75,0,0,0-.75.74,7,7,0,0,1-7,7,.76.76,0,0,0-.75.75v.11a.76.76,0,0,0,.75.75,7,7,0,0,1,7,7,.75.75,0,0,0,.75.74h.1a.75.75,0,0,0,.75-.74,7,7,0,0,1,7-7,.75.75,0,0,0,.75-.75v-.11A.76.76,0,0,0,366.76,80.42ZM359,85.68a8.6,8.6,0,0,0-4.45-4.45A8.67,8.67,0,0,0,359,76.78a8.67,8.67,0,0,0,4.45,4.45A8.6,8.6,0,0,0,359,85.68Z" class="color231d24 svgShape"/><path fill="#ffffff" d="M906.39,397.14l-6.55-3.92a1.24,1.24,0,0,1-.12-2l6-4.69a1.24,1.24,0,0,0-.87-2.21l-7.6.67a1.24,1.24,0,0,1-1.3-1.58l2.12-7.33a1.23,1.23,0,0,0-2-1.27l-5.76,5a1.24,1.24,0,0,1-2-.52l-2.59-7.17a1.24,1.24,0,0,0-2.37.14l-1.71,7.44a1.24,1.24,0,0,1-1.9.75l-6.32-4.28a1.24,1.24,0,0,0-1.84,1.51l3,7a1.24,1.24,0,0,1-1.1,1.72l-7.62.25a1.24,1.24,0,0,0-.6,2.3l6.55,3.93a1.24,1.24,0,0,1,.12,2l-6,4.68a1.24,1.24,0,0,0,.87,2.22l7.6-.68a1.25,1.25,0,0,1,1.3,1.58L873.59,410a1.24,1.24,0,0,0,2,1.28l5.76-5a1.23,1.23,0,0,1,2,.51l2.6,7.18a1.24,1.24,0,0,0,2.37-.15l1.71-7.44a1.24,1.24,0,0,1,1.9-.74l6.32,4.28a1.24,1.24,0,0,0,1.83-1.51l-3-7a1.24,1.24,0,0,1,1.1-1.72l7.62-.25A1.24,1.24,0,0,0,906.39,397.14Z" class="colorfff svgShape"/><path fill="#231d24" d="M906.77 396.5l-6.54-3.93a.5.5 0 01-.24-.39.51.51 0 01.19-.41l6-4.69a2 2 0 00-1.39-3.55l-7.65.68a.47.47 0 01-.39-.2.48.48 0 01-.08-.43l2.12-7.33a2 2 0 00-.31-1.74 2 2 0 00-2.91-.31l-5.75 5a.49.49 0 01-.32.12.48.48 0 01-.46-.32l-2.6-7.18a2 2 0 00-3.8.24L881 379.5a.49.49 0 01-.75.3l-6.32-4.28a2 2 0 00-2.79.56 2 2 0 00-.16 1.86l3 7a.47.47 0 010 .46.47.47 0 01-.39.22l-7.63.25a2 2 0 00-1 3.7l6.55 3.92a.5.5 0 01.24.39.53.53 0 01-.19.42l-6 4.68a2 2 0 00-.67 2.21 2 2 0 002.06 1.34l7.65-.67a.51.51 0 01.39.19.54.54 0 01.08.43l-2.12 7.33a2 2 0 00.31 1.74 2 2 0 002.9.31l5.76-5a.46.46 0 01.32-.12.5.5 0 01.46.32l2.6 7.18A2 2 0 00889 414l1.71-7.44a.48.48 0 01.75-.29l6.32 4.28a2 2 0 001.11.35 2 2 0 001.67-.91 2 2 0 00.17-1.87l-3-7a.49.49 0 010-.45.51.51 0 01.4-.23l7.63-.25a2 2 0 001.86-1.49A2 2 0 00906.77 396.5zm-.55 1.82a.45.45 0 01-.45.37l-7.63.25a2 2 0 00-1.76 2.77l3 7a.48.48 0 010 .45.53.53 0 01-.42.24.43.43 0 01-.27-.1l-6.32-4.27a1.92 1.92 0 00-1.11-.35 2 2 0 00-1.94 1.55l-1.71 7.43a.46.46 0 01-.48.38.45.45 0 01-.45-.32l-2.6-7.17a2 2 0 00-1.87-1.32 2 2 0 00-1.31.49l-5.75 5a.49.49 0 01-.72-.08.44.44 0 01-.07-.42l2.12-7.33a2 2 0 00-.32-1.75 2 2 0 00-1.77-.78l-7.66.67a.48.48 0 01-.28-.87l6-4.69a2 2 0 00.76-1.69 2 2 0 00-1-1.59l-6.54-3.92a.49.49 0 01.23-.91l7.63-.25a2 2 0 001.76-2.76l-3-7a.47.47 0 010-.46.48.48 0 01.69-.14l6.31 4.28a2 2 0 001.12.34 2 2 0 001.94-1.54l1.71-7.44a.48.48 0 01.48-.38.46.46 0 01.45.32l2.6 7.18a2 2 0 001.87 1.31 2 2 0 001.3-.49l5.76-5a.49.49 0 01.72.08.47.47 0 01.07.43l-2.12 7.33a2 2 0 00.32 1.74 2 2 0 001.77.79L905 385a.46.46 0 01.45.34.45.45 0 01-.16.54l-6 4.68a2 2 0 00.2 3.28l6.54 3.92A.45.45 0 01906.22 398.32zM233.1 111.59a17.18 17.18 0 004.66-4.8c3.43-5.35 3.71-11.09.76-15.75-2.62-4.13-7.25-6.54-11.52-6-3.7.48-6.48 3.07-7.83 7.31-1.87 5.85-1.25 10.66 1.83 14.32a19.25 19.25 0 008.36 5.35c-6.77 3.2-15.88 3.14-23.17.84C195 109.35 188.57 101.38 189 91.55l-1.5-.06c-.43 10.54 6.4 19.07 18.27 22.81A38.2 38.2 0 00217 116a29.78 29.78 0 0014.31-3.33c12.93 3.78 30.81 1.38 31.8 1.24l-.21-1.48C262.71 112.47 245.73 114.75 233.1 111.59zm-1.91-.54c-3.73-1.15-6.95-2.85-9-5.34-2.73-3.23-3.25-7.57-1.55-12.9 1.16-3.64 3.5-5.87 6.59-6.27a8.39 8.39 0 011-.06 11.26 11.26 0 019.06 5.37c2.62 4.14 2.35 9.29-.75 14.13A16.09 16.09 0 01231.19 111.05zM268.87 59.49A79.6 79.6 0 00265.59 44l-1.43.47A81.59 81.59 0 01267.31 59a14.64 14.64 0 00-3.62-.53c-6.51-.14-8.84 3.14-9.66 5.11A9.88 9.88 0 00256.32 74a6.6 6.6 0 007.7 1.16c4.34-2.06 5.31-7.87 5-13.91A13.54 13.54 0 01274.8 67c4.61 8.32 3.63 21.65-2.33 31.72l1.29.76C280 89 281 75 276.11 66.28A14.72 14.72 0 00268.87 59.49zm-5.49 14.27a5.12 5.12 0 01-6-.89 8.3 8.3 0 01-1.93-8.75c1.12-2.71 3.9-4.19 7.85-4.19h.39a13.1 13.1 0 013.8.65C267.91 66.38 267.2 72 263.38 73.76z" class="color231d24 svgShape"/><polygon fill="#231d24" points="522.14 99.57 512.89 108.81 503.65 99.57 495.07 108.14 504.32 117.39 495.07 126.64 503.65 135.21 512.89 125.97 522.14 135.21 530.71 126.64 521.47 117.39 530.71 108.14 522.14 99.57" class="color231d24 svgShape"/><path fill="#231d24" d="M531.24,107.61,522.67,99a.75.75,0,0,0-1.06,0l-8.72,8.71L504.18,99a.77.77,0,0,0-1.06,0l-8.58,8.57a.77.77,0,0,0,0,1.07l8.72,8.71-8.72,8.71a.77.77,0,0,0,0,1.07l8.58,8.57a.75.75,0,0,0,1.06,0l8.71-8.71,8.72,8.71a.75.75,0,0,0,1.06,0l8.57-8.57a.75.75,0,0,0,0-1.07l-8.71-8.71,8.71-8.71A.75.75,0,0,0,531.24,107.61Zm-10.3,9.25a.75.75,0,0,0,0,1.06l8.71,8.71-7.51,7.52-8.72-8.71a.71.71,0,0,0-.53-.22.74.74,0,0,0-.53.22l-8.71,8.71-7.52-7.52,8.72-8.71a.75.75,0,0,0,0-1.06l-8.72-8.71,7.52-7.52,8.71,8.71a.74.74,0,0,0,1.06,0l8.72-8.71,7.51,7.52Z" class="color231d24 svgShape"/><polygon fill="#ffffff" points="525.55 93.74 516.3 102.99 507.06 93.74 498.48 102.32 507.73 111.56 498.48 120.81 507.06 129.38 516.3 120.14 525.55 129.38 534.12 120.81 524.88 111.56 534.12 102.32 525.55 93.74" class="colorfff svgShape"/><path fill="#231d24" d="M534.65,101.79l-8.57-8.58a.75.75,0,0,0-1.06,0l-8.72,8.72-8.71-8.72a.77.77,0,0,0-1.06,0L498,101.79a.75.75,0,0,0,0,1.06l8.72,8.71L498,120.28a.75.75,0,0,0,0,1.06l8.58,8.57a.75.75,0,0,0,1.06,0l8.71-8.71,8.72,8.71a.75.75,0,0,0,1.06,0l8.57-8.57a.74.74,0,0,0,0-1.06l-8.71-8.72,8.71-8.71A.74.74,0,0,0,534.65,101.79ZM524.35,111a.75.75,0,0,0,0,1.06l8.71,8.72-7.51,7.51-8.72-8.71a.71.71,0,0,0-.53-.22.74.74,0,0,0-.53.22l-8.71,8.71-7.52-7.51,8.72-8.72a.75.75,0,0,0,0-1.06l-8.72-8.71,7.52-7.52,8.71,8.72a.75.75,0,0,0,1.06,0l8.72-8.72,7.51,7.52Z" class="color231d24 svgShape"/><polygon fill="#4d5eff" points="661.13 94.16 675.12 67.92 625.44 43.2 661.13 94.16" class="color4d5eff svgShape"/><path fill="#231d24" d="M675.45,67.24,625.78,42.52a.75.75,0,0,0-.9.19.74.74,0,0,0,0,.92l35.68,51a.75.75,0,0,0,.62.32h0a.77.77,0,0,0,.62-.4l14-26.24a.7.7,0,0,0,.05-.58A.74.74,0,0,0,675.45,67.24ZM661,92.73,627.75,45.18,674.1,68.24Z" class="color231d24 svgShape"/><polygon fill="#4d5eff" points="631.68 98.34 661.12 94.16 625.44 43.2 631.68 98.34" class="color4d5eff svgShape"/><path fill="#231d24" d="M626.05 42.77a.75.75 0 00-.88-.27.74.74 0 00-.48.78l6.24 55.14a.76.76 0 00.29.51.76.76 0 00.46.16h.1l29.45-4.17a.75.75 0 00.58-.45.74.74 0 00-.07-.73zm6.28 54.71L626.52 46l33.29 47.55zM104.21 239.77V251l50.29-50.29H143.23zM104.21 259.36V273H105l71.46-71.47v-.77H162.82zM149.55 273l26.89-26.89V232.26L135.73 273zM176.44 273V254.41L157.87 273zM127.41 273l49-49V209.83L113.3 273zM104.21 221.19v10.25l30.7-30.7H124.54Q114.42 211 104.21 221.19zM104.21 212.91c4-4 8-8.11 12.05-12.17H104.21z" class="color231d24 svgShape"/><rect width="917.11" height="1.5" x="41.45" y="464.25" fill="#231d24" class="color231d24 svgShape"/><circle cx="652.26" cy="403.35" r="28.95" fill="#ffffff" transform="rotate(-7.16 652.621 403.554)" class="colorfff svgShape"/><path fill="#231d24" d="M652.26,373.64A29.71,29.71,0,1,0,682,403.35,29.75,29.75,0,0,0,652.26,373.64Zm0,57.91a28.21,28.21,0,1,1,28.2-28.2A28.24,28.24,0,0,1,652.26,431.55Z" class="color231d24 svgShape"/><path fill="#231d24" d="M666.5,402.25l-4.61-1.18a9.81,9.81,0,0,1-7.09-7.16l-1.29-5.27a1.42,1.42,0,0,0-2.73-.08L649,394.48a9.81,9.81,0,0,1-6.75,6.57L638,402.21a1.42,1.42,0,0,0,.12,2.76l4.09.77a9.81,9.81,0,0,1,7.72,7.38l1.17,4.92a1.41,1.41,0,0,0,2.76,0l.94-4.6a9.81,9.81,0,0,1,7.82-7.68l3.81-.71A1.41,1.41,0,0,0,666.5,402.25Z" class="color231d24 svgShape"/><path fill="#ffffff" d="M666.69 401.52l-4.61-1.18a9 9 0 01-6.55-6.61l-1.3-5.27a2.17 2.17 0 00-4.17-.12l-1.83 5.92a9 9 0 01-6.23 6.06l-4.22 1.17a2.17 2.17 0 00.18 4.22l4.09.77a9.06 9.06 0 017.13 6.81l1.17 4.92a2.16 2.16 0 004.22-.06l.95-4.6a9 9 0 017.22-7.1l3.8-.7a2.17 2.17 0 00.15-4.23zm-.42 2.75l-3.8.71a10.52 10.52 0 00-8.42 8.27l-.94 4.6a.65.65 0 01-.66.53.64.64 0 01-.64-.52L650.64 413a10.59 10.59 0 00-8.31-7.95l-4.09-.77a.66.66 0 01-.06-1.29l4.22-1.17a10.54 10.54 0 007.27-7.07l1.83-5.92a.63.63 0 01.63-.46.65.65 0 01.65.5l1.29 5.27a10.53 10.53 0 007.64 7.7l4.6 1.19a.66.66 0 010 1.29zM325.88 428l-17-7.28s-7.29 19.4-12.56 26.24c-2.65 3.44-4.43 5.87-3.07 11.75h22.6l8.63-8.09s-9.71.17-5.76-8.62A133.17 133.17 0 01325.88 428z" class="colorfff svgShape"/><path fill="#231d24" d="M326.18,427.33l-17-7.28a.76.76,0,0,0-.59,0,.74.74,0,0,0-.41.42c-.07.19-7.31,19.37-12.45,26-2.61,3.39-4.68,6.06-3.22,12.38a.76.76,0,0,0,.74.58h22.6a.73.73,0,0,0,.51-.2l8.63-8.1a.72.72,0,0,0,.16-.82.76.76,0,0,0-.71-.47c-.17,0-4,0-5.39-2.19-.81-1.25-.69-3.06.35-5.38a137.46,137.46,0,0,1,7.1-13.91.71.71,0,0,0,.08-.62A.79.79,0,0,0,326.18,427.33Zm-8.13,14.38c-1.26,2.81-1.34,5.1-.24,6.81a7.05,7.05,0,0,0,4.94,2.72L315.57,458h-21.7c-1.06-5.2.6-7.35,3.06-10.54,4.76-6.18,11-22.05,12.4-25.71l15.47,6.64C323.79,430.12,321.13,434.85,318.05,441.71Z" class="color231d24 svgShape"/><path fill="#231d24" d="M333.24,455.38c-7.69-3.1-2-8.91-2-8.91-11,0-27,12.51-27,12.51h-20.1v4.34h66C350.09,458.52,348.17,461.4,333.24,455.38Z" class="color231d24 svgShape"/><path fill="#231d24" d="M346,458.72a84.67,84.67,0,0,1-12.5-4c-2-.83-3.23-1.91-3.5-3.21-.47-2.19,1.7-4.47,1.72-4.49a.74.74,0,0,0,.15-.81.75.75,0,0,0-.69-.46c-10.54,0-25.27,11-27.26,12.51H284.09a.76.76,0,0,0-.75.75v4.34a.76.76,0,0,0,.75.75h66a.75.75,0,0,0,.75-.75C350.84,459.91,349.63,459.61,346,458.72Zm-61.18,3.85v-2.84h19.35a.76.76,0,0,0,.46-.16c.15-.12,14.47-11.19,25-12.27a6.2,6.2,0,0,0-1.07,4.49c.38,1.82,1.86,3.26,4.41,4.29a86.27,86.27,0,0,0,12.7,4.1c3.1.76,3.59.88,3.67,2.39Z" class="color231d24 svgShape"/><path fill="#ffffff" d="M304.32,279.45v54.08l36.53,10.23-39.24,86.35s7.64,14.55,35.75,14.8c0,0,38-53.51,39.7-59.18s36.25-50.8,16.53-74.72S304.32,279.45,304.32,279.45Z" class="colorfff svgShape"/><path fill="#231d24" d="M304.4,278.7a.77.77,0,0,0-.58.19.75.75,0,0,0-.25.56v54.08a.75.75,0,0,0,.55.72l35.69,10L300.93,429.8a.73.73,0,0,0,0,.66c.32.61,8.17,15,36.41,15.2h0a.75.75,0,0,0,.62-.32c1.55-2.19,38.06-53.67,39.8-59.39a53.27,53.27,0,0,1,3.58-6.45c8.76-14.65,29.29-49,12.8-69C374.47,286.66,307.26,279,304.4,278.7Zm75.67,100a47.5,47.5,0,0,0-3.72,6.78c-1.33,4.37-26.2,40.08-39.37,58.64-24.71-.34-33.23-12-34.52-14.09l39.07-86a.77.77,0,0,0,0-.63.75.75,0,0,0-.48-.41l-36-10.07V280.29c7.92,1,69.79,9.19,87.94,31.2C408.82,330.67,388.68,364.35,380.07,378.73Z" class="color231d24 svgShape"/><rect width="188.93" height="17.78" x="171.22" y="381.23" fill="#ffffff" class="colorfff svgShape"/><path fill="#231d24" d="M360.15,380.48H171.22a.75.75,0,0,0-.75.75V399a.76.76,0,0,0,.75.75H360.15a.75.75,0,0,0,.75-.75V381.23A.74.74,0,0,0,360.15,380.48Zm-.75,17.78H172V382H359.4Z" class="color231d24 svgShape"/><path fill="#231d24" d="M341.26 436.38a25.05 25.05 0 01-25 25h-118a25.05 25.05 0 01-25-25V381.23c0-31.83-23.12-93.43-36.91-127.31a12.06 12.06 0 0111.18-16.6H172v-4H147.49a16.06 16.06 0 00-14.88 22.11c13.67 33.61 36.61 94.65 36.61 125.8v55.15a29.06 29.06 0 0029 29h118a29.06 29.06 0 0029-29V399.59h-4zM562.33 440.75a20.66 20.66 0 01-20.64 20.64H413.24a20.66 20.66 0 01-20.63-20.64V287.51h-4V440.75a24.66 24.66 0 0024.63 24.64H541.69a24.66 24.66 0 0024.64-24.64V289h-4z" class="color231d24 svgShape"/><rect width="216.75" height="8.74" x="369.09" y="278.09" fill="#ffffff" class="colorfff svgShape"/><path fill="#231d24" d="M585.84 277.34H369.09a.76.76 0 00-.75.75v8.74a.76.76 0 00.75.75H585.84a.75.75 0 00.75-.75v-8.74A.75.75 0 00585.84 277.34zm-.75 8.74H369.84v-7.24H585.09zM432.85 447.46s12.8 1.84 24.09-8.82 8.56-16.86 8.56-16.86C456.35 408.52 432.85 447.46 432.85 447.46z" class="color231d24 svgShape"/><path fill="#231d24" d="M466.12,421.35a6.39,6.39,0,0,0-5.41-3.08c-11,0-27.79,27.63-28.5,28.8a.75.75,0,0,0,0,.71.72.72,0,0,0,.57.42,17.12,17.12,0,0,0,2.39.13,32.4,32.4,0,0,0,22.31-9.14c11.54-10.9,8.86-17.44,8.74-17.71A.54.54,0,0,0,466.12,421.35Zm-9.7,16.75a30.91,30.91,0,0,1-21.28,8.73l-1,0c3.2-5.08,17.54-27,26.57-27a4.86,4.86,0,0,1,4.12,2.36C465,422.75,466.54,428.55,456.42,438.1Z" class="color231d24 svgShape"/><path fill="#ffffff" d="M444,422.38l-14.1,11.94s11.57,8.32,11.57,12.66-3.07,4.16-3.07,11.75H461l6.5-8.09s-8.07-8.15-14.17-15.61A135.2,135.2,0,0,1,444,422.38Z" class="colorfff svgShape"/><path fill="#231d24" d="M453.86,434.56A133.93,133.93,0,0,1,444.59,422a.74.74,0,0,0-.52-.35.78.78,0,0,0-.6.17l-14.11,11.94a.75.75,0,0,0,.05,1.18c3.13,2.25,11.26,8.8,11.26,12.05a6.74,6.74,0,0,1-1.12,3.71,14.27,14.27,0,0,0-1.95,8,.74.74,0,0,0,.75.75H461a.74.74,0,0,0,.59-.28l6.5-8.09a.75.75,0,0,0-.06-1C467.9,450,459.87,441.9,453.86,434.56ZM460.59,458H439.11a12.42,12.42,0,0,1,1.75-6.57,8.17,8.17,0,0,0,1.31-4.43c0-4.06-8.34-10.63-11.11-12.7l12.73-10.77a144.48,144.48,0,0,0,8.91,12c5.21,6.37,11.93,13.32,13.75,15.18Z" class="color231d24 svgShape"/><path fill="#ffffff" d="M475.3,261.15c-7.77-.52-27.95-4.66-27.95-4.66l12,8a66.15,66.15,0,0,1,11.78.78C478.66,266.32,483.06,261.66,475.3,261.15Z" class="colorfff svgShape"/><path fill="#231d24" d="M475.35,260.4c-7.63-.51-27.65-4.6-27.85-4.65a.75.75,0,0,0-.84.45.74.74,0,0,0,.27.91l12,8a.74.74,0,0,0,.46.12s.47,0,1.34,0a77.85,77.85,0,0,1,10.28.8,17.24,17.24,0,0,0,2.24.16c3.78,0,6.78-1.41,6.84-3.21C480.16,262.14,479.57,260.68,475.35,260.4Zm-2.06,4.29a14.18,14.18,0,0,1-2-.15,79.59,79.59,0,0,0-10.49-.81l-1.18,0L450.92,258c6.22,1.22,18.56,3.54,24.33,3.93,2.81.18,3.38.9,3.38,1C478.61,263.44,476.72,264.69,473.29,264.69Z" class="color231d24 svgShape"/><path fill="#ffffff" d="M437,253.25c-16.29-4.59-38.39-2.41-38.39-2.41L401.52,272c21.62-12.59,32.88-6,32.88-6,0,3.65,2.52,6.61,5.63,6.61h30.22C470.25,268.35,452.54,257.64,437,253.25Z" class="colorfff svgShape"/><path fill="#231d24" d="M437.2 252.53c-8.66-2.44-19-3-26.07-3s-12.54.52-12.59.53a.75.75 0 00-.52.28.76.76 0 00-.15.57l2.9 21.13a.77.77 0 00.42.57.75.75 0 00.71 0c8.54-5 16.76-7.61 23.75-7.61a19.42 19.42 0 018 1.46c.21 3.84 3 6.89 6.37 6.89h30.22a.75.75 0 00.75-.75C471 267.78 452.68 256.9 437.2 252.53zM440 271.86c-2.69 0-4.88-2.63-4.88-5.86a.76.76 0 00-.37-.65c-.13-.07-3.2-1.84-9.13-1.84-7.09 0-15 2.44-23.54 7.26l-2.65-19.25c1.72-.14 6.12-.45 11.67-.45 7 0 17.16.51 25.66 2.91 15.17 4.27 30.56 13.89 32.5 17.88zM478.32 455.38a33.88 33.88 0 01-12.41-8.91c-11 0-16.64 12.51-16.64 12.51H429.18v4.34h66C495.18 458.52 493.25 461.4 478.32 455.38z" class="color231d24 svgShape"/><path fill="#231d24" d="M491.1,458.72a85,85,0,0,1-12.5-4A33.69,33.69,0,0,1,466.49,446a.72.72,0,0,0-.58-.28c-10.26,0-16,10.21-17.11,12.51H429.18a.75.75,0,0,0-.75.75v4.34a.75.75,0,0,0,.75.75h66a.76.76,0,0,0,.75-.75C495.93,459.91,494.71,459.61,491.1,458.72Zm-61.17,3.85v-2.84h19.34a.76.76,0,0,0,.69-.44c.05-.12,5.49-11.81,15.61-12.07A34.56,34.56,0,0,0,478,456.08a86.27,86.27,0,0,0,12.7,4.1c3.1.76,3.6.88,3.67,2.39Z" class="color231d24 svgShape"/><path fill="#ffffff" d="M406.73,337.76c-17.84-14.8-78.72-39-108-39-68.42,0-125.59,29-115.27,46.42,7.91,13.36,32.55,36.13,50.5,36.13h74s37.87-3.91,52.67-5.66l72.26,71.83s26.56-36.56,32.65-25.68C465.5,421.78,424.58,352.56,406.73,337.76Z" class="colorfff svgShape"/><path fill="#231d24" d="M466,421.16c-4.24-7.14-41.66-69.77-58.8-84C388.55,321.71,327.09,298,298.68,298,243,298,193.16,317.4,183.23,334.82c-2.19,3.83-2.35,7.54-.46,10.72,7.33,12.39,32,36.5,51.14,36.5H308c.38,0,37.44-3.88,52.33-5.62l72,71.57a.79.79,0,0,0,.53.22h.06a.76.76,0,0,0,.55-.31c.2-.27,20-27.4,28.75-27.4a2.79,2.79,0,0,1,2.51,1.44l.14.22a.75.75,0,0,0,1.3-.75Zm-3.8-2.16c-8.77,0-26.15,22.87-29.45,27.32L361.12,375.1a.75.75,0,0,0-.53-.22h-.09c-14.62,1.72-52.28,5.62-52.58,5.65h-74c-17.79,0-42.38-23.15-49.85-35.76-1.62-2.73-1.46-5.83.47-9.22,9.73-17.06,59-36.07,114.15-36.07,28.16,0,89.08,23.51,107.58,38.85C421.68,351.13,455,405.72,463,419.07A5.29,5.29,0,0,0,462.21,419Z" class="color231d24 svgShape"/><path fill="#ffffff" d="M324,106.65c-9.44-5.42-21.34-2.14-23.92,1.81S294,130.69,294,130.69a30.73,30.73,0,0,1-15,9.2c.62,14.88,13.95,19.22,13.95,19.22,0-9,5.23-12.89,5.23-12.89s8.07,11.47,17.88,7.52,23.13-26.18,23.13-26.18C342.2,121.16,333.4,112.07,324,106.65Z" class="colorfff svgShape"/><path fill="#231d24" d="M324.33,106a23,23,0,0,0-11.47-3c-5.9,0-11.56,2.1-13.45,5-2.5,3.84-5.72,20.12-6.14,22.28a30.15,30.15,0,0,1-14.41,8.81.76.76,0,0,0-.6.77c.64,15.22,14.33,19.85,14.47,19.9a.85.85,0,0,0,.23,0,.71.71,0,0,0,.44-.15.72.72,0,0,0,.31-.6c0-6.74,3.08-10.51,4.37-11.79,1.63,2.05,6.93,8,13.8,8a11.84,11.84,0,0,0,4.47-.89c9.94-4,22.94-25.57,23.53-26.56C343,121.18,334.43,111.8,324.33,106Zm14.22,21.17c-.13.22-13.29,22-22.76,25.87a10.29,10.29,0,0,1-3.91.78c-7.33,0-13-7.95-13.08-8a.73.73,0,0,0-.49-.31.76.76,0,0,0-.57.14c-.22.16-5.11,3.9-5.5,12.39-2.94-1.3-11.67-6.1-12.45-17.54a32,32,0,0,0,14.73-9.27.72.72,0,0,0,.18-.37c0-.18,3.5-18.17,6-22,1.38-2.12,6.32-4.32,12.19-4.32a21.51,21.51,0,0,1,10.72,2.75C332.86,112.63,341.25,121.42,338.55,127.17Z" class="color231d24 svgShape"/><path fill="#ffffff" d="M299.87,180.63s-5.81-19.75-5.81-21.49a2.42,2.42,0,0,1,1.57-2.27s-11.16-4-15.87-20.57c0,0-59.34,15.76-90.56,63.56S156.67,311.06,174,345.37c0,0,22.64,3.73,60.9-24.29,47.49-34.78,90.22-18.86,90.22-18.86a117.29,117.29,0,0,1-6.22-20.3C316.21,269.58,304.31,197.05,299.87,180.63Z" class="colorfff svgShape"/><path fill="#231d24" d="M319.64 281.76c-1-4.52-3.25-17.35-5.87-32.2-4.61-26.16-10.36-58.71-13.18-69.14-2.23-7.6-5.78-20.09-5.78-21.28a1.62 1.62 0 011.05-1.55.77.77 0 00.52-.71.76.76 0 00-.5-.71c-.11 0-10.86-4.12-15.4-20.07a.74.74 0 00-.91-.52c-.6.15-60 16.38-91 63.86-31.47 48.17-32.45 112.2-15.23 146.26a.77.77 0 00.55.41 23 23 0 003.07.17c7.46 0 28.09-2.39 58.4-24.59 25.22-18.48 49.08-22.36 64.64-22.36 15 0 24.77 3.56 24.87 3.59a.75.75 0 00.81-.19.76.76 0 00.14-.81A116.73 116.73 0 01319.64 281.76zM300 297.83c-15.79 0-40 3.93-65.53 22.65-29.95 21.93-50.2 24.3-57.51 24.3a23 23 0 01-2.46-.11c-16.84-33.78-15.73-96.86 15.32-144.4 28.88-44.21 82.65-61.07 89.43-63.05 3.95 13.1 11.79 18.23 14.86 19.79a3 3 0 00-.8 2.13c0 1.8 5.24 19.67 5.84 21.68 2.8 10.35 8.53 42.87 13.14 69 2.63 14.87 4.89 27.71 5.89 32.26A126.58 126.58 0 00323.82 301 84 84 0 00300 297.83zM344 93.32c-13.66-20.94-28.84-5.22-28.84-5.22-23.83-4.15-23.21 23-21.82 27.67s.67 14.92.67 14.92 7.65-.55 8-6.46 1.46-12.5 8.14-12.12c9.1.51 3.26 13.47 6.38 11.82s7.38-11.62 7.38-11.62c14.1 9.38 17.11 26.57 26.64 22.36 9.2-4.06 9.7-23.27 9.7-23.27C349.73 125.86 357.62 114.27 344 93.32z" class="color231d24 svgShape"/><path fill="#231d24" d="M360.5 110.69a.73.73 0 00-.84.27c-2.16 3-4.39 6-5 6.14a11.51 11.51 0 01-1.12-3.38 64.56 64.56 0 00-9-20.81c-4.86-7.45-10.47-11.22-16.67-11.22-6.69 0-11.81 4.42-13.06 5.61-8-1.3-14.15.78-18.12 6.1-5.47 7.36-5.19 19.14-4.15 22.58 1.33 4.47.64 14.56.63 14.66a.7.7 0 00.22.58.71.71 0 00.58.22c2.87-.21 8.39-2 8.74-7.16.48-7.08 1.9-11.74 7.35-11.42 4.65.26 4.87 4.07 4.69 8.3-.08 1.64-.12 2.73.43 3.31a1.15 1.15 0 00.84.35h0a1.74 1.74 0 00.83-.23c2.82-1.5 6.19-8.59 7.34-11.15 5.55 3.91 9.26 9 12.54 13.46 3.75 5.12 6.7 9.17 11 9.17h0a7.82 7.82 0 003.13-.71c9.53-4.21 10.13-23.14 10.15-23.94A.74.74 0 00360.5 110.69zM350.26 134a6.33 6.33 0 01-2.53.58h0c-3.48 0-6.25-3.77-9.74-8.56-3.33-4.55-7.47-10.21-13.66-14.33a.75.75 0 00-.41-.12.78.78 0 00-.22 0 .73.73 0 00-.47.42c-1.14 2.67-4.58 9.81-7 11.2a19 19 0 010-2c.15-3.32.42-9.5-6.09-9.86-8.05-.45-8.64 8.55-8.93 12.82s-4.61 5.33-6.5 5.65c.15-2.65.44-10.32-.75-14.28-.94-3.13-1.16-14.42 3.93-21.25 3.67-4.94 9.44-6.78 17-5.46a.77.77 0 00.67-.22c0-.05 5.33-5.43 12.26-5.43 5.66 0 10.85 3.54 15.42 10.54a63 63 0 018.76 20.36c.77 3 1.15 4.49 2.51 4.49h0c1.09 0 2.15-1.16 4.72-4.64C358.83 119.21 357 131 350.26 134zM337 252.29S304 192.6 283.77 160.54a7.11 7.11 0 00-13.12 3.79v51.8A56.75 56.75 0 00287 256c19.49 19.76 34 32.65 38.66 35 7.92 4 80-11.49 80-11.49l-3.52-32C383.07 246.36 337 252.29 337 252.29z" class="color231d24 svgShape"/><path fill="#231d24" d="M402.18 246.78c-1.67-.1-3.62-.15-5.79-.15-19.71 0-54.38 4.27-59 4.85-3.08-5.54-34-61.09-53-91.34a7.63 7.63 0 00-6.56-3.68 7.84 7.84 0 00-7.94 7.87v51.8a57.1 57.1 0 0016.56 40.35c18.54 18.81 33.79 32.61 38.86 35.16 1 .5 2.71.73 5.36.74 18.29 0 74.56-12 75.13-12.16a.75.75 0 00.58-.82l-3.51-31.95A.76.76 0 00402.18 246.78zm-71.51 44.1c-2.92 0-4.16-.31-4.68-.58-4.93-2.48-20-16.17-38.47-34.87a55.67 55.67 0 01-16.12-39.3v-51.8a6.35 6.35 0 016.44-6.37 6.17 6.17 0 015.29 3c20 31.67 52.89 91.12 53.22 91.71a.76.76 0 00.76.38c.38-.05 38.34-4.9 59.28-4.9 1.87 0 3.57 0 5.06.11l3.38 30.65C398.43 280.25 347.73 290.88 330.67 290.88zM421.44 275.15a59.85 59.85 0 0018.44 2.92H510.6a5.16 5.16 0 005.17-5.17H414.51z" class="color231d24 svgShape"/><path fill="#231d24" d="M515.77,272.15H414.51a.75.75,0,0,0-.23,1.47l6.93,2.25a60.39,60.39,0,0,0,18.67,2.95H510.6a5.93,5.93,0,0,0,5.92-5.92A.76.76,0,0,0,515.77,272.15Zm-5.17,5.17H439.88a59,59,0,0,1-18.21-2.88l-2.42-.79H515A4.42,4.42,0,0,1,510.6,277.32Z" class="color231d24 svgShape"/><path fill="#ffffff" d="M533.55,173.22,515.77,272.9a4.66,4.66,0,0,0,5.41-3.77l16.14-90.5A4.65,4.65,0,0,0,533.55,173.22Z" class="colorfff svgShape"/><path fill="#231d24" d="M533.68 172.48a.76.76 0 00-.87.61L515 272.77a.73.73 0 00.12.56.73.73 0 00.49.31 5 5 0 001 .09 5.42 5.42 0 005.33-4.46l16.14-90.51a5.43 5.43 0 00-4.38-6.28zm2.91 6L520.44 269a3.91 3.91 0 01-3.79 3.23l17.5-98.07a3.93 3.93 0 012.44 4.34zM212.64 350.05c-6.59 5.8-16.86 8.69-16.86 8.69a85.33 85.33 0 0029 20.29l2.64-8.69C218.7 366.91 212.64 350.05 212.64 350.05z" class="color231d24 svgShape"/><path fill="#231d24" d="M227.67 369.64c-8.28-3.26-14.26-19.68-14.32-19.85a.76.76 0 00-.52-.47.76.76 0 00-.68.16c-6.38 5.62-16.47 8.51-16.58 8.54a.75.75 0 00-.34 1.23 87.12 87.12 0 0029.27 20.49.75.75 0 00.26 0 .72.72 0 00.33-.07.77.77 0 00.39-.46l2.64-8.69A.75.75 0 00227.67 369.64zM224.28 378a86.69 86.69 0 01-27.13-18.93c2.77-.89 9.84-3.47 15.17-7.79 1.43 3.64 6.74 16 14.17 19.45zM360.46 360.07c-.61 0-60.84 1.21-91.93 1.21-30.53 0-40.33-25.86-40.42-26.12l-1.41.51c.1.27 10.22 27.11 41.83 27.11 29.92 0 86.81-1.11 91.64-1.2l68.12 69.32 1.07-1L361 360.29A.74.74 0 00360.46 360.07z" class="color231d24 svgShape"/></svg>